# xmcd
#
# Track frame offsets:
#	150
#	16503
#	33701
#	52932
#	73321
#	90001
#	104632
#	120157
#	133852
#	151820
#	168545
#	186420
#	203582
#	220141
#	240628
#
# Disc length: 3389 seconds
#
# Revision: 1
# Processed by: cddbd v1.5.1PL2 Copyright (c) Steve Scherf et al.
# Submitted via: audiograbber 1.83.01
#
DISCID=c40d3b0f
DTITLE=Music Maestro - mm6048
DYEAR=1900
DGENRE=Karaoke Country
TTITLE0=McEntire, Reba - Why Haven't I Heard From You
TTITLE1=Brooks and Dunn - That Ain't No Way To Go
TTITLE2=Tillis, Pam - Spilled Perfume
TTITLE3=Raye, Collin - Little Rock
TTITLE4=Mattea, Kathy - Walking Away A Winner
TTITLE5=Yoakam, Dwight - Try Not To Look So Pretty
TTITLE6=White, Lari - What A Woman Wants
TTITLE7=Walker, Clay - What's It To You
TTITLE8=Confederate Railroad - Daddy Never Was The Cadillac Kind
TTITLE9=Harris, Emmylou - Thanks To You
TTITLE10=Diffie, Joe - In My Own Back Yard
TTITLE11=Keith, Toby - Wish I Didn't Know Now
TTITLE12=White, Lari - That's My Baby
TTITLE13=Montgomery, John Michael - Rope The Moon
TTITLE14=Trevino, Rick - Honky Tonk Crowd
EXTD=
EXTT0=
EXTT1=
EXTT2=
EXTT3=
EXTT4=
EXTT5=
EXTT6=
EXTT7=
EXTT8=
EXTT9=
EXTT10=
EXTT11=
EXTT12=
EXTT13=
EXTT14=
PLAYORDER=
